<?xml version="1.0" standalone="no"?><!DOCTYPE svg PUBLIC "-//W3C//DTD SVG 1.1//EN" "http://www.w3.org/Graphics/SVG/1.1/DTD/svg11.dtd"><svg t="1649640843122" class="icon" viewBox="0 0 1024 1024" version="1.1" xmlns="http://www.w3.org/2000/svg" p-id="2906" xmlns:xlink="http://www.w3.org/1999/xlink" width="200" height="200"><defs><style type="text/css">@font-face { font-family: feedback-iconfont; src: url("//at.alicdn.com/t/font_1031158_u69w8yhxdu.woff2?t=1630033759944") format("woff2"), url("//at.alicdn.com/t/font_1031158_u69w8yhxdu.woff?t=1630033759944") format("woff"), url("//at.alicdn.com/t/font_1031158_u69w8yhxdu.ttf?t=1630033759944") format("truetype"); }
</style></defs><path d="M829.866667 917.333333H194.133333C145.066667 917.333333 106.666667 878.933333 106.666667 829.866667V194.133333C106.666667 145.066667 145.066667 106.666667 194.133333 106.666667H832c46.933333 0 85.333333 38.4 85.333333 87.466666V832c0 46.933333-38.4 85.333333-87.466666 85.333333z" fill="#08979C" p-id="2907"></path><path d="M746.666667 298.666667m-85.333334 0a85.333333 85.333333 0 1 0 170.666667 0 85.333333 85.333333 0 1 0-170.666667 0Z" fill="#FFFFFF" p-id="2908"></path><path d="M746.666667 917.333333l-183.466667-317.866666L379.733333 917.333333z" fill="#FFFFFF" p-id="2909"></path><path d="M108.8 842.666667c6.4 42.666667 40.533333 74.666667 85.333333 74.666666h369.066667L313.6 486.4 108.8 842.666667z" fill="#FFFFFF" p-id="2910"></path></svg>